<mxfile host="app.diagrams.net" modified="2024-05-22T20:11:38.749Z" agent="Mozilla/5.0 (Macintosh; Intel Mac OS X 10_15_7) AppleWebKit/537.36 (KHTML, like Gecko) Chrome/125.0.0.0 Safari/537.36 Edg/125.0.0.0" etag="ahmKiNtcqZY5jDAy1vWO" version="24.4.6" type="device">
  <diagram id="prtHgNgQTEPvFCAcTncT" name="Page-1">
    <mxGraphModel dx="1474" dy="450" grid="1" gridSize="10" guides="1" tooltips="1" connect="1" arrows="1" fold="1" page="1" pageScale="1" pageWidth="827" pageHeight="1169" math="0" shadow="0">
      <root>
        <mxCell id="0" />
        <mxCell id="1" parent="0" />
        <mxCell id="pUPX2TWsstye6qnm_-PR-9" style="edgeStyle=orthogonalEdgeStyle;rounded=0;orthogonalLoop=1;jettySize=auto;html=1;entryX=1;entryY=0.5;entryDx=0;entryDy=0;strokeColor=#E07A5F;fontColor=#393C56;fillColor=#F2CC8F;" edge="1" parent="1" source="pUPX2TWsstye6qnm_-PR-1" target="pUPX2TWsstye6qnm_-PR-3">
          <mxGeometry relative="1" as="geometry" />
        </mxCell>
        <mxCell id="pUPX2TWsstye6qnm_-PR-12" style="edgeStyle=orthogonalEdgeStyle;rounded=0;orthogonalLoop=1;jettySize=auto;html=1;entryX=0.5;entryY=0;entryDx=0;entryDy=0;strokeColor=#E07A5F;fontColor=#393C56;fillColor=#F2CC8F;" edge="1" parent="1" source="pUPX2TWsstye6qnm_-PR-1" target="pUPX2TWsstye6qnm_-PR-10">
          <mxGeometry relative="1" as="geometry" />
        </mxCell>
        <mxCell id="pUPX2TWsstye6qnm_-PR-1" value="Login (Landing Screen)" style="rounded=0;whiteSpace=wrap;html=1;labelBackgroundColor=none;fillColor=#F2CC8F;strokeColor=#E07A5F;fontColor=#393C56;" vertex="1" parent="1">
          <mxGeometry x="140" y="130" width="120" height="60" as="geometry" />
        </mxCell>
        <mxCell id="pUPX2TWsstye6qnm_-PR-7" style="edgeStyle=orthogonalEdgeStyle;rounded=0;orthogonalLoop=1;jettySize=auto;html=1;strokeColor=#E07A5F;fontColor=#393C56;fillColor=#F2CC8F;" edge="1" parent="1" source="pUPX2TWsstye6qnm_-PR-2" target="pUPX2TWsstye6qnm_-PR-1">
          <mxGeometry relative="1" as="geometry" />
        </mxCell>
        <mxCell id="pUPX2TWsstye6qnm_-PR-2" value="" style="ellipse;whiteSpace=wrap;html=1;aspect=fixed;labelBackgroundColor=none;fillColor=#00F261;strokeColor=#E07A5F;fontColor=#393C56;" vertex="1" parent="1">
          <mxGeometry x="80" y="40" width="30" height="30" as="geometry" />
        </mxCell>
        <mxCell id="pUPX2TWsstye6qnm_-PR-3" value="" style="ellipse;whiteSpace=wrap;html=1;aspect=fixed;labelBackgroundColor=none;fillColor=#F22B24;strokeColor=#E07A5F;fontColor=#393C56;" vertex="1" parent="1">
          <mxGeometry x="30" y="90" width="30" height="30" as="geometry" />
        </mxCell>
        <mxCell id="pUPX2TWsstye6qnm_-PR-5" value="App Starts" style="text;html=1;align=center;verticalAlign=middle;resizable=0;points=[];autosize=1;strokeColor=none;fillColor=none;fontColor=#393C56;" vertex="1" parent="1">
          <mxGeometry x="60" y="60" width="80" height="30" as="geometry" />
        </mxCell>
        <mxCell id="pUPX2TWsstye6qnm_-PR-6" value="Exit App" style="text;html=1;align=center;verticalAlign=middle;resizable=0;points=[];autosize=1;strokeColor=none;fillColor=none;fontColor=#393C56;" vertex="1" parent="1">
          <mxGeometry x="15" y="120" width="70" height="30" as="geometry" />
        </mxCell>
        <mxCell id="pUPX2TWsstye6qnm_-PR-10" value="Login" style="rounded=0;whiteSpace=wrap;html=1;labelBackgroundColor=none;fillColor=#e79004;strokeColor=#E07A5F;fontColor=#393C56;" vertex="1" parent="1">
          <mxGeometry x="90" y="220" width="60" height="40" as="geometry" />
        </mxCell>
        <mxCell id="pUPX2TWsstye6qnm_-PR-15" style="edgeStyle=orthogonalEdgeStyle;rounded=0;orthogonalLoop=1;jettySize=auto;html=1;entryX=0.5;entryY=0;entryDx=0;entryDy=0;strokeColor=#E07A5F;fontColor=#393C56;fillColor=#F2CC8F;" edge="1" parent="1" source="pUPX2TWsstye6qnm_-PR-11" target="pUPX2TWsstye6qnm_-PR-14">
          <mxGeometry relative="1" as="geometry" />
        </mxCell>
        <mxCell id="pUPX2TWsstye6qnm_-PR-11" value="Register" style="rounded=0;whiteSpace=wrap;html=1;labelBackgroundColor=none;fillColor=#e79004;strokeColor=#E07A5F;fontColor=#393C56;" vertex="1" parent="1">
          <mxGeometry x="230" y="220" width="60" height="40" as="geometry" />
        </mxCell>
        <mxCell id="pUPX2TWsstye6qnm_-PR-13" style="edgeStyle=orthogonalEdgeStyle;rounded=0;orthogonalLoop=1;jettySize=auto;html=1;entryX=0.659;entryY=0.036;entryDx=0;entryDy=0;entryPerimeter=0;strokeColor=#E07A5F;fontColor=#393C56;fillColor=#F2CC8F;" edge="1" parent="1" source="pUPX2TWsstye6qnm_-PR-1" target="pUPX2TWsstye6qnm_-PR-11">
          <mxGeometry relative="1" as="geometry" />
        </mxCell>
        <mxCell id="pUPX2TWsstye6qnm_-PR-17" style="edgeStyle=orthogonalEdgeStyle;rounded=0;orthogonalLoop=1;jettySize=auto;html=1;entryX=0.5;entryY=0;entryDx=0;entryDy=0;strokeColor=#E07A5F;fontColor=#393C56;fillColor=#F2CC8F;" edge="1" parent="1" source="pUPX2TWsstye6qnm_-PR-14" target="pUPX2TWsstye6qnm_-PR-16">
          <mxGeometry relative="1" as="geometry" />
        </mxCell>
        <mxCell id="pUPX2TWsstye6qnm_-PR-14" value="Register form" style="rounded=0;whiteSpace=wrap;html=1;labelBackgroundColor=none;fillColor=#F2CC8F;strokeColor=#E07A5F;fontColor=#393C56;" vertex="1" parent="1">
          <mxGeometry x="260" y="300" width="120" height="60" as="geometry" />
        </mxCell>
        <mxCell id="pUPX2TWsstye6qnm_-PR-30" style="edgeStyle=orthogonalEdgeStyle;rounded=0;orthogonalLoop=1;jettySize=auto;html=1;entryX=0.75;entryY=0;entryDx=0;entryDy=0;strokeColor=#E07A5F;fontColor=#393C56;fillColor=#F2CC8F;" edge="1" parent="1" source="pUPX2TWsstye6qnm_-PR-16" target="pUPX2TWsstye6qnm_-PR-18">
          <mxGeometry relative="1" as="geometry">
            <Array as="points">
              <mxPoint x="320" y="440" />
              <mxPoint x="100" y="440" />
            </Array>
          </mxGeometry>
        </mxCell>
        <mxCell id="pUPX2TWsstye6qnm_-PR-16" value="Submits Info" style="rounded=0;whiteSpace=wrap;html=1;labelBackgroundColor=none;fillColor=#e79004;strokeColor=#E07A5F;fontColor=#393C56;" vertex="1" parent="1">
          <mxGeometry x="290" y="380" width="60" height="40" as="geometry" />
        </mxCell>
        <mxCell id="pUPX2TWsstye6qnm_-PR-43" style="edgeStyle=orthogonalEdgeStyle;rounded=0;orthogonalLoop=1;jettySize=auto;html=1;entryX=1;entryY=0;entryDx=0;entryDy=0;strokeColor=#E07A5F;fontColor=#393C56;fillColor=#F2CC8F;" edge="1" parent="1" source="pUPX2TWsstye6qnm_-PR-18" target="pUPX2TWsstye6qnm_-PR-35">
          <mxGeometry relative="1" as="geometry" />
        </mxCell>
        <mxCell id="pUPX2TWsstye6qnm_-PR-55" style="edgeStyle=orthogonalEdgeStyle;rounded=0;orthogonalLoop=1;jettySize=auto;html=1;entryX=1;entryY=0;entryDx=0;entryDy=0;strokeColor=#E07A5F;fontColor=#393C56;fillColor=#F2CC8F;exitX=0.75;exitY=1;exitDx=0;exitDy=0;" edge="1" parent="1" source="pUPX2TWsstye6qnm_-PR-18" target="pUPX2TWsstye6qnm_-PR-51">
          <mxGeometry relative="1" as="geometry" />
        </mxCell>
        <mxCell id="pUPX2TWsstye6qnm_-PR-85" style="edgeStyle=orthogonalEdgeStyle;rounded=0;orthogonalLoop=1;jettySize=auto;html=1;entryX=0;entryY=0.25;entryDx=0;entryDy=0;strokeColor=#E07A5F;fontColor=#393C56;fillColor=#F2CC8F;" edge="1" parent="1" source="pUPX2TWsstye6qnm_-PR-18" target="pUPX2TWsstye6qnm_-PR-81">
          <mxGeometry relative="1" as="geometry">
            <Array as="points">
              <mxPoint x="70" y="570" />
              <mxPoint x="360" y="570" />
              <mxPoint x="360" y="560" />
            </Array>
          </mxGeometry>
        </mxCell>
        <mxCell id="pUPX2TWsstye6qnm_-PR-18" value="Teacher Record&amp;nbsp;" style="rounded=0;whiteSpace=wrap;html=1;labelBackgroundColor=none;fillColor=#F2CC8F;strokeColor=#E07A5F;fontColor=#393C56;" vertex="1" parent="1">
          <mxGeometry x="10" y="600" width="120" height="60" as="geometry" />
        </mxCell>
        <mxCell id="pUPX2TWsstye6qnm_-PR-31" style="edgeStyle=orthogonalEdgeStyle;rounded=0;orthogonalLoop=1;jettySize=auto;html=1;entryX=0.25;entryY=0;entryDx=0;entryDy=0;strokeColor=#E07A5F;fontColor=#393C56;fillColor=#F2CC8F;" edge="1" parent="1" source="pUPX2TWsstye6qnm_-PR-19" target="pUPX2TWsstye6qnm_-PR-18">
          <mxGeometry relative="1" as="geometry" />
        </mxCell>
        <mxCell id="pUPX2TWsstye6qnm_-PR-19" value="Teacher Record" style="rounded=0;whiteSpace=wrap;html=1;labelBackgroundColor=none;fillColor=#e79004;strokeColor=#E07A5F;fontColor=#393C56;" vertex="1" parent="1">
          <mxGeometry x="10" y="480" width="60" height="40" as="geometry" />
        </mxCell>
        <mxCell id="pUPX2TWsstye6qnm_-PR-33" style="edgeStyle=orthogonalEdgeStyle;rounded=0;orthogonalLoop=1;jettySize=auto;html=1;entryX=0.5;entryY=0;entryDx=0;entryDy=0;strokeColor=#E07A5F;fontColor=#393C56;fillColor=#F2CC8F;" edge="1" parent="1" source="pUPX2TWsstye6qnm_-PR-20" target="pUPX2TWsstye6qnm_-PR-27">
          <mxGeometry relative="1" as="geometry" />
        </mxCell>
        <mxCell id="pUPX2TWsstye6qnm_-PR-20" value="Classroom Record" style="rounded=0;whiteSpace=wrap;html=1;labelBackgroundColor=none;fillColor=#e79004;strokeColor=#E07A5F;fontColor=#393C56;" vertex="1" parent="1">
          <mxGeometry x="240" y="480" width="60" height="40" as="geometry" />
        </mxCell>
        <mxCell id="pUPX2TWsstye6qnm_-PR-21" value="Assignments Record" style="rounded=0;whiteSpace=wrap;html=1;labelBackgroundColor=none;fillColor=#e79004;strokeColor=#E07A5F;fontColor=#393C56;" vertex="1" parent="1">
          <mxGeometry x="360" y="480" width="70" height="40" as="geometry" />
        </mxCell>
        <mxCell id="pUPX2TWsstye6qnm_-PR-32" style="edgeStyle=orthogonalEdgeStyle;rounded=0;orthogonalLoop=1;jettySize=auto;html=1;entryX=0.5;entryY=0;entryDx=0;entryDy=0;strokeColor=#E07A5F;fontColor=#393C56;fillColor=#F2CC8F;" edge="1" parent="1" source="pUPX2TWsstye6qnm_-PR-22" target="pUPX2TWsstye6qnm_-PR-26">
          <mxGeometry relative="1" as="geometry" />
        </mxCell>
        <mxCell id="pUPX2TWsstye6qnm_-PR-22" value="Admin Record" style="rounded=0;whiteSpace=wrap;html=1;labelBackgroundColor=none;fillColor=#e79004;strokeColor=#E07A5F;fontColor=#393C56;" vertex="1" parent="1">
          <mxGeometry x="130" y="480" width="60" height="40" as="geometry" />
        </mxCell>
        <mxCell id="pUPX2TWsstye6qnm_-PR-45" style="edgeStyle=orthogonalEdgeStyle;rounded=0;orthogonalLoop=1;jettySize=auto;html=1;entryX=1;entryY=0;entryDx=0;entryDy=0;strokeColor=#E07A5F;fontColor=#393C56;fillColor=#F2CC8F;" edge="1" parent="1" source="pUPX2TWsstye6qnm_-PR-26" target="pUPX2TWsstye6qnm_-PR-40">
          <mxGeometry relative="1" as="geometry" />
        </mxCell>
        <mxCell id="pUPX2TWsstye6qnm_-PR-58" style="edgeStyle=orthogonalEdgeStyle;rounded=0;orthogonalLoop=1;jettySize=auto;html=1;entryX=0.75;entryY=0;entryDx=0;entryDy=0;strokeColor=#E07A5F;fontColor=#393C56;fillColor=#F2CC8F;exitX=0.709;exitY=1.016;exitDx=0;exitDy=0;exitPerimeter=0;" edge="1" parent="1" source="pUPX2TWsstye6qnm_-PR-26" target="pUPX2TWsstye6qnm_-PR-52">
          <mxGeometry relative="1" as="geometry" />
        </mxCell>
        <mxCell id="pUPX2TWsstye6qnm_-PR-59" style="edgeStyle=orthogonalEdgeStyle;rounded=0;orthogonalLoop=1;jettySize=auto;html=1;entryX=1;entryY=0;entryDx=0;entryDy=0;strokeColor=#E07A5F;fontColor=#393C56;fillColor=#F2CC8F;exitX=1;exitY=1;exitDx=0;exitDy=0;" edge="1" parent="1" source="pUPX2TWsstye6qnm_-PR-26" target="pUPX2TWsstye6qnm_-PR-54">
          <mxGeometry relative="1" as="geometry" />
        </mxCell>
        <mxCell id="pUPX2TWsstye6qnm_-PR-26" value="Admin Record" style="rounded=0;whiteSpace=wrap;html=1;labelBackgroundColor=none;fillColor=#F2CC8F;strokeColor=#E07A5F;fontColor=#393C56;" vertex="1" parent="1">
          <mxGeometry x="150" y="600" width="120" height="60" as="geometry" />
        </mxCell>
        <mxCell id="pUPX2TWsstye6qnm_-PR-47" style="edgeStyle=orthogonalEdgeStyle;rounded=0;orthogonalLoop=1;jettySize=auto;html=1;entryX=1;entryY=0;entryDx=0;entryDy=0;strokeColor=#E07A5F;fontColor=#393C56;fillColor=#F2CC8F;" edge="1" parent="1" source="pUPX2TWsstye6qnm_-PR-27" target="pUPX2TWsstye6qnm_-PR-41">
          <mxGeometry relative="1" as="geometry" />
        </mxCell>
        <mxCell id="pUPX2TWsstye6qnm_-PR-83" style="edgeStyle=orthogonalEdgeStyle;rounded=0;orthogonalLoop=1;jettySize=auto;html=1;entryX=0;entryY=0.75;entryDx=0;entryDy=0;strokeColor=#E07A5F;fontColor=#393C56;fillColor=#F2CC8F;" edge="1" parent="1" source="pUPX2TWsstye6qnm_-PR-27" target="pUPX2TWsstye6qnm_-PR-81">
          <mxGeometry relative="1" as="geometry">
            <Array as="points">
              <mxPoint x="360" y="590" />
              <mxPoint x="505" y="590" />
              <mxPoint x="505" y="580" />
            </Array>
          </mxGeometry>
        </mxCell>
        <mxCell id="pUPX2TWsstye6qnm_-PR-27" value="Classroom Record" style="rounded=0;whiteSpace=wrap;html=1;labelBackgroundColor=none;fillColor=#F2CC8F;strokeColor=#E07A5F;fontColor=#393C56;" vertex="1" parent="1">
          <mxGeometry x="300" y="600" width="120" height="60" as="geometry" />
        </mxCell>
        <mxCell id="pUPX2TWsstye6qnm_-PR-50" style="edgeStyle=orthogonalEdgeStyle;rounded=0;orthogonalLoop=1;jettySize=auto;html=1;entryX=1;entryY=0;entryDx=0;entryDy=0;strokeColor=#E07A5F;fontColor=#393C56;fillColor=#F2CC8F;" edge="1" parent="1" source="pUPX2TWsstye6qnm_-PR-28" target="pUPX2TWsstye6qnm_-PR-42">
          <mxGeometry relative="1" as="geometry" />
        </mxCell>
        <mxCell id="pUPX2TWsstye6qnm_-PR-28" value="Assignments Record" style="rounded=0;whiteSpace=wrap;html=1;labelBackgroundColor=none;fillColor=#F2CC8F;strokeColor=#E07A5F;fontColor=#393C56;" vertex="1" parent="1">
          <mxGeometry x="450" y="600" width="120" height="60" as="geometry" />
        </mxCell>
        <mxCell id="pUPX2TWsstye6qnm_-PR-29" style="edgeStyle=orthogonalEdgeStyle;rounded=0;orthogonalLoop=1;jettySize=auto;html=1;entryX=0.601;entryY=0.045;entryDx=0;entryDy=0;entryPerimeter=0;strokeColor=#E07A5F;fontColor=#393C56;fillColor=#F2CC8F;" edge="1" parent="1" source="pUPX2TWsstye6qnm_-PR-10" target="pUPX2TWsstye6qnm_-PR-18">
          <mxGeometry relative="1" as="geometry" />
        </mxCell>
        <mxCell id="pUPX2TWsstye6qnm_-PR-34" style="edgeStyle=orthogonalEdgeStyle;rounded=0;orthogonalLoop=1;jettySize=auto;html=1;entryX=0.605;entryY=0.005;entryDx=0;entryDy=0;entryPerimeter=0;strokeColor=#E07A5F;fontColor=#393C56;fillColor=#F2CC8F;" edge="1" parent="1" source="pUPX2TWsstye6qnm_-PR-21" target="pUPX2TWsstye6qnm_-PR-28">
          <mxGeometry relative="1" as="geometry" />
        </mxCell>
        <mxCell id="pUPX2TWsstye6qnm_-PR-44" style="edgeStyle=orthogonalEdgeStyle;rounded=0;orthogonalLoop=1;jettySize=auto;html=1;entryX=0.25;entryY=1;entryDx=0;entryDy=0;strokeColor=#E07A5F;fontColor=#393C56;fillColor=#F2CC8F;" edge="1" parent="1" source="pUPX2TWsstye6qnm_-PR-35" target="pUPX2TWsstye6qnm_-PR-18">
          <mxGeometry relative="1" as="geometry" />
        </mxCell>
        <mxCell id="pUPX2TWsstye6qnm_-PR-35" value="Search" style="rounded=0;whiteSpace=wrap;html=1;labelBackgroundColor=none;fillColor=#e79004;strokeColor=#E07A5F;fontColor=#393C56;" vertex="1" parent="1">
          <mxGeometry x="10" y="680" width="60" height="40" as="geometry" />
        </mxCell>
        <mxCell id="pUPX2TWsstye6qnm_-PR-46" style="edgeStyle=orthogonalEdgeStyle;rounded=0;orthogonalLoop=1;jettySize=auto;html=1;entryX=0.25;entryY=1;entryDx=0;entryDy=0;strokeColor=#E07A5F;fontColor=#393C56;fillColor=#F2CC8F;" edge="1" parent="1" source="pUPX2TWsstye6qnm_-PR-40" target="pUPX2TWsstye6qnm_-PR-26">
          <mxGeometry relative="1" as="geometry" />
        </mxCell>
        <mxCell id="pUPX2TWsstye6qnm_-PR-40" value="Search" style="rounded=0;whiteSpace=wrap;html=1;labelBackgroundColor=none;fillColor=#e79004;strokeColor=#E07A5F;fontColor=#393C56;" vertex="1" parent="1">
          <mxGeometry x="150" y="680" width="60" height="40" as="geometry" />
        </mxCell>
        <mxCell id="pUPX2TWsstye6qnm_-PR-48" style="edgeStyle=orthogonalEdgeStyle;rounded=0;orthogonalLoop=1;jettySize=auto;html=1;entryX=0.25;entryY=1;entryDx=0;entryDy=0;strokeColor=#E07A5F;fontColor=#393C56;fillColor=#F2CC8F;" edge="1" parent="1" source="pUPX2TWsstye6qnm_-PR-41" target="pUPX2TWsstye6qnm_-PR-27">
          <mxGeometry relative="1" as="geometry" />
        </mxCell>
        <mxCell id="pUPX2TWsstye6qnm_-PR-41" value="Search" style="rounded=0;whiteSpace=wrap;html=1;labelBackgroundColor=none;fillColor=#e79004;strokeColor=#E07A5F;fontColor=#393C56;" vertex="1" parent="1">
          <mxGeometry x="300" y="680" width="60" height="40" as="geometry" />
        </mxCell>
        <mxCell id="pUPX2TWsstye6qnm_-PR-49" style="edgeStyle=orthogonalEdgeStyle;rounded=0;orthogonalLoop=1;jettySize=auto;html=1;entryX=0.25;entryY=1;entryDx=0;entryDy=0;strokeColor=#E07A5F;fontColor=#393C56;fillColor=#F2CC8F;" edge="1" parent="1" source="pUPX2TWsstye6qnm_-PR-42" target="pUPX2TWsstye6qnm_-PR-28">
          <mxGeometry relative="1" as="geometry" />
        </mxCell>
        <mxCell id="pUPX2TWsstye6qnm_-PR-42" value="Search" style="rounded=0;whiteSpace=wrap;html=1;labelBackgroundColor=none;fillColor=#e79004;strokeColor=#E07A5F;fontColor=#393C56;" vertex="1" parent="1">
          <mxGeometry x="450" y="680" width="60" height="40" as="geometry" />
        </mxCell>
        <mxCell id="pUPX2TWsstye6qnm_-PR-63" style="edgeStyle=orthogonalEdgeStyle;rounded=0;orthogonalLoop=1;jettySize=auto;html=1;entryX=0.25;entryY=0;entryDx=0;entryDy=0;strokeColor=#E07A5F;fontColor=#393C56;fillColor=#F2CC8F;exitX=0.25;exitY=1;exitDx=0;exitDy=0;" edge="1" parent="1" source="pUPX2TWsstye6qnm_-PR-51" target="pUPX2TWsstye6qnm_-PR-60">
          <mxGeometry relative="1" as="geometry" />
        </mxCell>
        <mxCell id="pUPX2TWsstye6qnm_-PR-51" value="Open Details" style="rounded=0;whiteSpace=wrap;html=1;labelBackgroundColor=none;fillColor=#e79004;strokeColor=#E07A5F;fontColor=#393C56;" vertex="1" parent="1">
          <mxGeometry x="30" y="760" width="60" height="40" as="geometry" />
        </mxCell>
        <mxCell id="pUPX2TWsstye6qnm_-PR-52" value="Open Details" style="rounded=0;whiteSpace=wrap;html=1;labelBackgroundColor=none;fillColor=#e79004;strokeColor=#E07A5F;fontColor=#393C56;" vertex="1" parent="1">
          <mxGeometry x="190" y="760" width="60" height="40" as="geometry" />
        </mxCell>
        <mxCell id="pUPX2TWsstye6qnm_-PR-53" value="Add New Teacher" style="rounded=0;whiteSpace=wrap;html=1;labelBackgroundColor=none;fillColor=#e79004;strokeColor=#E07A5F;fontColor=#393C56;" vertex="1" parent="1">
          <mxGeometry x="70" y="820" width="60" height="40" as="geometry" />
        </mxCell>
        <mxCell id="pUPX2TWsstye6qnm_-PR-54" value="Add New Admin" style="rounded=0;whiteSpace=wrap;html=1;labelBackgroundColor=none;fillColor=#e79004;strokeColor=#E07A5F;fontColor=#393C56;" vertex="1" parent="1">
          <mxGeometry x="210" y="820" width="60" height="40" as="geometry" />
        </mxCell>
        <mxCell id="pUPX2TWsstye6qnm_-PR-56" style="edgeStyle=orthogonalEdgeStyle;rounded=0;orthogonalLoop=1;jettySize=auto;html=1;entryX=0.862;entryY=-0.007;entryDx=0;entryDy=0;entryPerimeter=0;strokeColor=#E07A5F;fontColor=#393C56;fillColor=#F2CC8F;exitX=0.926;exitY=0.984;exitDx=0;exitDy=0;exitPerimeter=0;" edge="1" parent="1" source="pUPX2TWsstye6qnm_-PR-18" target="pUPX2TWsstye6qnm_-PR-53">
          <mxGeometry relative="1" as="geometry" />
        </mxCell>
        <mxCell id="pUPX2TWsstye6qnm_-PR-78" style="edgeStyle=orthogonalEdgeStyle;rounded=0;orthogonalLoop=1;jettySize=auto;html=1;entryX=0.75;entryY=0;entryDx=0;entryDy=0;strokeColor=#E07A5F;fontColor=#393C56;fillColor=#F2CC8F;" edge="1" parent="1" source="pUPX2TWsstye6qnm_-PR-60" target="pUPX2TWsstye6qnm_-PR-65">
          <mxGeometry relative="1" as="geometry" />
        </mxCell>
        <mxCell id="pUPX2TWsstye6qnm_-PR-89" style="edgeStyle=orthogonalEdgeStyle;rounded=0;orthogonalLoop=1;jettySize=auto;html=1;entryX=0.5;entryY=0;entryDx=0;entryDy=0;strokeColor=#E07A5F;fontColor=#393C56;fillColor=#F2CC8F;exitX=1;exitY=0.5;exitDx=0;exitDy=0;" edge="1" parent="1" source="pUPX2TWsstye6qnm_-PR-60" target="pUPX2TWsstye6qnm_-PR-67">
          <mxGeometry relative="1" as="geometry">
            <Array as="points">
              <mxPoint x="155" y="920" />
              <mxPoint x="155" y="960" />
              <mxPoint x="130" y="960" />
            </Array>
          </mxGeometry>
        </mxCell>
        <mxCell id="pUPX2TWsstye6qnm_-PR-90" style="edgeStyle=orthogonalEdgeStyle;rounded=0;orthogonalLoop=1;jettySize=auto;html=1;entryX=0.25;entryY=0;entryDx=0;entryDy=0;strokeColor=#E07A5F;fontColor=#393C56;fillColor=#F2CC8F;exitX=0;exitY=0.5;exitDx=0;exitDy=0;" edge="1" parent="1" source="pUPX2TWsstye6qnm_-PR-60" target="pUPX2TWsstye6qnm_-PR-66">
          <mxGeometry relative="1" as="geometry" />
        </mxCell>
        <mxCell id="pUPX2TWsstye6qnm_-PR-60" value="Teacher Info" style="rounded=0;whiteSpace=wrap;html=1;labelBackgroundColor=none;fillColor=#F2CC8F;strokeColor=#E07A5F;fontColor=#393C56;" vertex="1" parent="1">
          <mxGeometry x="15" y="890" width="120" height="60" as="geometry" />
        </mxCell>
        <mxCell id="pUPX2TWsstye6qnm_-PR-62" style="edgeStyle=orthogonalEdgeStyle;rounded=0;orthogonalLoop=1;jettySize=auto;html=1;strokeColor=#E07A5F;fontColor=#393C56;fillColor=#F2CC8F;entryX=0;entryY=0.25;entryDx=0;entryDy=0;exitX=0;exitY=0.75;exitDx=0;exitDy=0;" edge="1" parent="1" source="pUPX2TWsstye6qnm_-PR-54" target="pUPX2TWsstye6qnm_-PR-14">
          <mxGeometry relative="1" as="geometry">
            <mxPoint x="-70" y="320" as="targetPoint" />
            <mxPoint x="170" y="960" as="sourcePoint" />
            <Array as="points">
              <mxPoint x="160" y="850" />
              <mxPoint x="160" y="970" />
              <mxPoint x="-70" y="970" />
              <mxPoint x="-70" y="315" />
            </Array>
          </mxGeometry>
        </mxCell>
        <mxCell id="pUPX2TWsstye6qnm_-PR-80" style="edgeStyle=orthogonalEdgeStyle;rounded=0;orthogonalLoop=1;jettySize=auto;html=1;strokeColor=#E07A5F;fontColor=#393C56;fillColor=#F2CC8F;entryX=0.679;entryY=0.039;entryDx=0;entryDy=0;entryPerimeter=0;exitX=1;exitY=0.5;exitDx=0;exitDy=0;" edge="1" parent="1" source="pUPX2TWsstye6qnm_-PR-61" target="pUPX2TWsstye6qnm_-PR-68">
          <mxGeometry relative="1" as="geometry">
            <mxPoint x="310" y="980" as="targetPoint" />
          </mxGeometry>
        </mxCell>
        <mxCell id="pUPX2TWsstye6qnm_-PR-92" style="edgeStyle=orthogonalEdgeStyle;rounded=0;orthogonalLoop=1;jettySize=auto;html=1;entryX=0.5;entryY=0;entryDx=0;entryDy=0;strokeColor=#E07A5F;fontColor=#393C56;fillColor=#F2CC8F;" edge="1" parent="1" source="pUPX2TWsstye6qnm_-PR-61" target="pUPX2TWsstye6qnm_-PR-70">
          <mxGeometry relative="1" as="geometry" />
        </mxCell>
        <mxCell id="pUPX2TWsstye6qnm_-PR-61" value="Admin Info" style="rounded=0;whiteSpace=wrap;html=1;labelBackgroundColor=none;fillColor=#F2CC8F;strokeColor=#E07A5F;fontColor=#393C56;" vertex="1" parent="1">
          <mxGeometry x="180" y="890" width="120" height="60" as="geometry" />
        </mxCell>
        <mxCell id="pUPX2TWsstye6qnm_-PR-64" style="edgeStyle=orthogonalEdgeStyle;rounded=0;orthogonalLoop=1;jettySize=auto;html=1;entryX=0.096;entryY=-0.021;entryDx=0;entryDy=0;entryPerimeter=0;strokeColor=#E07A5F;fontColor=#393C56;fillColor=#F2CC8F;exitX=0;exitY=1;exitDx=0;exitDy=0;" edge="1" parent="1" source="pUPX2TWsstye6qnm_-PR-52" target="pUPX2TWsstye6qnm_-PR-61">
          <mxGeometry relative="1" as="geometry" />
        </mxCell>
        <mxCell id="pUPX2TWsstye6qnm_-PR-88" style="edgeStyle=orthogonalEdgeStyle;rounded=0;orthogonalLoop=1;jettySize=auto;html=1;entryX=0;entryY=0.25;entryDx=0;entryDy=0;strokeColor=#E07A5F;fontColor=#393C56;fillColor=#F2CC8F;" edge="1" parent="1" source="pUPX2TWsstye6qnm_-PR-65" target="pUPX2TWsstye6qnm_-PR-18">
          <mxGeometry relative="1" as="geometry">
            <Array as="points">
              <mxPoint x="60" y="960" />
              <mxPoint x="-10" y="960" />
              <mxPoint x="-10" y="615" />
            </Array>
          </mxGeometry>
        </mxCell>
        <mxCell id="pUPX2TWsstye6qnm_-PR-65" value="Go Back" style="rounded=0;whiteSpace=wrap;html=1;labelBackgroundColor=none;fillColor=#e79004;strokeColor=#E07A5F;fontColor=#393C56;" vertex="1" parent="1">
          <mxGeometry x="30" y="990" width="60" height="40" as="geometry" />
        </mxCell>
        <mxCell id="pUPX2TWsstye6qnm_-PR-66" value="Delete Teacher" style="rounded=0;whiteSpace=wrap;html=1;labelBackgroundColor=none;fillColor=#e79004;strokeColor=#E07A5F;fontColor=#393C56;" vertex="1" parent="1">
          <mxGeometry x="-40" y="990" width="60" height="40" as="geometry" />
        </mxCell>
        <mxCell id="pUPX2TWsstye6qnm_-PR-67" value="Edit Teacher" style="rounded=0;whiteSpace=wrap;html=1;labelBackgroundColor=none;fillColor=#e79004;strokeColor=#E07A5F;fontColor=#393C56;" vertex="1" parent="1">
          <mxGeometry x="100" y="990" width="60" height="40" as="geometry" />
        </mxCell>
        <mxCell id="pUPX2TWsstye6qnm_-PR-87" style="edgeStyle=orthogonalEdgeStyle;rounded=0;orthogonalLoop=1;jettySize=auto;html=1;entryX=1;entryY=0.5;entryDx=0;entryDy=0;strokeColor=#E07A5F;fontColor=#393C56;fillColor=#F2CC8F;" edge="1" parent="1" source="pUPX2TWsstye6qnm_-PR-68" target="pUPX2TWsstye6qnm_-PR-26">
          <mxGeometry relative="1" as="geometry">
            <Array as="points">
              <mxPoint x="290" y="630" />
            </Array>
          </mxGeometry>
        </mxCell>
        <mxCell id="pUPX2TWsstye6qnm_-PR-68" value="Go Back" style="rounded=0;whiteSpace=wrap;html=1;labelBackgroundColor=none;fillColor=#e79004;strokeColor=#E07A5F;fontColor=#393C56;" vertex="1" parent="1">
          <mxGeometry x="270" y="990" width="60" height="40" as="geometry" />
        </mxCell>
        <mxCell id="pUPX2TWsstye6qnm_-PR-95" style="edgeStyle=orthogonalEdgeStyle;rounded=0;orthogonalLoop=1;jettySize=auto;html=1;entryX=0.5;entryY=0;entryDx=0;entryDy=0;strokeColor=#E07A5F;fontColor=#393C56;fillColor=#F2CC8F;" edge="1" parent="1" source="pUPX2TWsstye6qnm_-PR-69" target="pUPX2TWsstye6qnm_-PR-94">
          <mxGeometry relative="1" as="geometry" />
        </mxCell>
        <mxCell id="pUPX2TWsstye6qnm_-PR-69" value="Delete Admin" style="rounded=0;whiteSpace=wrap;html=1;labelBackgroundColor=none;fillColor=#e79004;strokeColor=#E07A5F;fontColor=#393C56;" vertex="1" parent="1">
          <mxGeometry x="200" y="990" width="60" height="40" as="geometry" />
        </mxCell>
        <mxCell id="pUPX2TWsstye6qnm_-PR-70" value="Edit Admin" style="rounded=0;whiteSpace=wrap;html=1;labelBackgroundColor=none;fillColor=#e79004;strokeColor=#E07A5F;fontColor=#393C56;" vertex="1" parent="1">
          <mxGeometry x="340" y="990" width="60" height="40" as="geometry" />
        </mxCell>
        <mxCell id="pUPX2TWsstye6qnm_-PR-74" style="edgeStyle=orthogonalEdgeStyle;rounded=0;orthogonalLoop=1;jettySize=auto;html=1;entryX=0.75;entryY=1;entryDx=0;entryDy=0;strokeColor=#E07A5F;fontColor=#393C56;fillColor=#F2CC8F;" edge="1" parent="1" source="pUPX2TWsstye6qnm_-PR-71" target="pUPX2TWsstye6qnm_-PR-27">
          <mxGeometry relative="1" as="geometry" />
        </mxCell>
        <mxCell id="pUPX2TWsstye6qnm_-PR-71" value="Delte Classroom" style="rounded=0;whiteSpace=wrap;html=1;labelBackgroundColor=none;fillColor=#e79004;strokeColor=#E07A5F;fontColor=#393C56;" vertex="1" parent="1">
          <mxGeometry x="360" y="740" width="60" height="40" as="geometry" />
        </mxCell>
        <mxCell id="pUPX2TWsstye6qnm_-PR-72" value="Delet Assignment" style="rounded=0;whiteSpace=wrap;html=1;labelBackgroundColor=none;fillColor=#e79004;strokeColor=#E07A5F;fontColor=#393C56;" vertex="1" parent="1">
          <mxGeometry x="510" y="740" width="70" height="40" as="geometry" />
        </mxCell>
        <mxCell id="pUPX2TWsstye6qnm_-PR-73" style="edgeStyle=orthogonalEdgeStyle;rounded=0;orthogonalLoop=1;jettySize=auto;html=1;entryX=0.25;entryY=0;entryDx=0;entryDy=0;strokeColor=#E07A5F;fontColor=#393C56;fillColor=#F2CC8F;exitX=0.615;exitY=1.015;exitDx=0;exitDy=0;exitPerimeter=0;" edge="1" parent="1" source="pUPX2TWsstye6qnm_-PR-27" target="pUPX2TWsstye6qnm_-PR-71">
          <mxGeometry relative="1" as="geometry">
            <Array as="points">
              <mxPoint x="374" y="700" />
              <mxPoint x="375" y="700" />
            </Array>
          </mxGeometry>
        </mxCell>
        <mxCell id="pUPX2TWsstye6qnm_-PR-75" style="edgeStyle=orthogonalEdgeStyle;rounded=0;orthogonalLoop=1;jettySize=auto;html=1;entryX=0.426;entryY=0.056;entryDx=0;entryDy=0;entryPerimeter=0;strokeColor=#E07A5F;fontColor=#393C56;fillColor=#F2CC8F;exitX=0.75;exitY=1;exitDx=0;exitDy=0;" edge="1" parent="1" source="pUPX2TWsstye6qnm_-PR-28" target="pUPX2TWsstye6qnm_-PR-72">
          <mxGeometry relative="1" as="geometry" />
        </mxCell>
        <mxCell id="pUPX2TWsstye6qnm_-PR-76" style="edgeStyle=orthogonalEdgeStyle;rounded=0;orthogonalLoop=1;jettySize=auto;html=1;entryX=0.877;entryY=1.059;entryDx=0;entryDy=0;entryPerimeter=0;strokeColor=#E07A5F;fontColor=#393C56;fillColor=#F2CC8F;exitX=0.636;exitY=0.006;exitDx=0;exitDy=0;exitPerimeter=0;" edge="1" parent="1" source="pUPX2TWsstye6qnm_-PR-72" target="pUPX2TWsstye6qnm_-PR-28">
          <mxGeometry relative="1" as="geometry" />
        </mxCell>
        <mxCell id="pUPX2TWsstye6qnm_-PR-81" value="Log out" style="rounded=0;whiteSpace=wrap;html=1;labelBackgroundColor=none;fillColor=#e79004;strokeColor=#E07A5F;fontColor=#393C56;" vertex="1" parent="1">
          <mxGeometry x="590" y="550" width="60" height="40" as="geometry" />
        </mxCell>
        <mxCell id="pUPX2TWsstye6qnm_-PR-82" style="edgeStyle=orthogonalEdgeStyle;rounded=0;orthogonalLoop=1;jettySize=auto;html=1;entryX=0.628;entryY=1.106;entryDx=0;entryDy=0;entryPerimeter=0;strokeColor=#E07A5F;fontColor=#393C56;fillColor=#F2CC8F;" edge="1" parent="1" source="pUPX2TWsstye6qnm_-PR-28" target="pUPX2TWsstye6qnm_-PR-81">
          <mxGeometry relative="1" as="geometry" />
        </mxCell>
        <mxCell id="pUPX2TWsstye6qnm_-PR-84" style="edgeStyle=orthogonalEdgeStyle;rounded=0;orthogonalLoop=1;jettySize=auto;html=1;entryX=-0.005;entryY=0.372;entryDx=0;entryDy=0;entryPerimeter=0;strokeColor=#E07A5F;fontColor=#393C56;fillColor=#F2CC8F;" edge="1" parent="1" source="pUPX2TWsstye6qnm_-PR-26" target="pUPX2TWsstye6qnm_-PR-81">
          <mxGeometry relative="1" as="geometry">
            <Array as="points">
              <mxPoint x="210" y="580" />
              <mxPoint x="430" y="580" />
              <mxPoint x="430" y="565" />
            </Array>
          </mxGeometry>
        </mxCell>
        <mxCell id="pUPX2TWsstye6qnm_-PR-86" style="edgeStyle=orthogonalEdgeStyle;rounded=0;orthogonalLoop=1;jettySize=auto;html=1;entryX=1.004;entryY=0.382;entryDx=0;entryDy=0;entryPerimeter=0;strokeColor=#E07A5F;fontColor=#393C56;fillColor=#F2CC8F;" edge="1" parent="1" source="pUPX2TWsstye6qnm_-PR-81" target="pUPX2TWsstye6qnm_-PR-1">
          <mxGeometry relative="1" as="geometry">
            <Array as="points">
              <mxPoint x="620" y="450" />
              <mxPoint x="425" y="450" />
              <mxPoint x="425" y="153" />
            </Array>
          </mxGeometry>
        </mxCell>
        <mxCell id="pUPX2TWsstye6qnm_-PR-91" style="edgeStyle=orthogonalEdgeStyle;rounded=0;orthogonalLoop=1;jettySize=auto;html=1;entryX=0.117;entryY=-0.044;entryDx=0;entryDy=0;entryPerimeter=0;strokeColor=#E07A5F;fontColor=#393C56;fillColor=#F2CC8F;" edge="1" parent="1" source="pUPX2TWsstye6qnm_-PR-61" target="pUPX2TWsstye6qnm_-PR-69">
          <mxGeometry relative="1" as="geometry" />
        </mxCell>
        <mxCell id="pUPX2TWsstye6qnm_-PR-97" style="edgeStyle=orthogonalEdgeStyle;rounded=0;orthogonalLoop=1;jettySize=auto;html=1;entryX=0;entryY=0.5;entryDx=0;entryDy=0;strokeColor=#E07A5F;fontColor=#393C56;fillColor=#F2CC8F;" edge="1" parent="1" source="pUPX2TWsstye6qnm_-PR-93" target="pUPX2TWsstye6qnm_-PR-18">
          <mxGeometry relative="1" as="geometry" />
        </mxCell>
        <mxCell id="pUPX2TWsstye6qnm_-PR-93" value="Confirmation Screen" style="rounded=0;whiteSpace=wrap;html=1;labelBackgroundColor=none;fillColor=#F2CC8F;strokeColor=#E07A5F;fontColor=#393C56;" vertex="1" parent="1">
          <mxGeometry x="-110" y="1060" width="120" height="60" as="geometry" />
        </mxCell>
        <mxCell id="pUPX2TWsstye6qnm_-PR-98" style="edgeStyle=orthogonalEdgeStyle;rounded=0;orthogonalLoop=1;jettySize=auto;html=1;entryX=1;entryY=0.25;entryDx=0;entryDy=0;strokeColor=#E07A5F;fontColor=#393C56;fillColor=#F2CC8F;" edge="1" parent="1" source="pUPX2TWsstye6qnm_-PR-94" target="pUPX2TWsstye6qnm_-PR-26">
          <mxGeometry relative="1" as="geometry">
            <Array as="points">
              <mxPoint x="410" y="1100" />
              <mxPoint x="410" y="865" />
              <mxPoint x="280" y="865" />
              <mxPoint x="280" y="615" />
            </Array>
          </mxGeometry>
        </mxCell>
        <mxCell id="pUPX2TWsstye6qnm_-PR-94" value="Confirmation Screen" style="rounded=0;whiteSpace=wrap;html=1;labelBackgroundColor=none;fillColor=#F2CC8F;strokeColor=#E07A5F;fontColor=#393C56;" vertex="1" parent="1">
          <mxGeometry x="160" y="1070" width="120" height="60" as="geometry" />
        </mxCell>
        <mxCell id="pUPX2TWsstye6qnm_-PR-96" style="edgeStyle=orthogonalEdgeStyle;rounded=0;orthogonalLoop=1;jettySize=auto;html=1;entryX=0.802;entryY=-0.016;entryDx=0;entryDy=0;entryPerimeter=0;strokeColor=#E07A5F;fontColor=#393C56;fillColor=#F2CC8F;" edge="1" parent="1" source="pUPX2TWsstye6qnm_-PR-66" target="pUPX2TWsstye6qnm_-PR-93">
          <mxGeometry relative="1" as="geometry" />
        </mxCell>
        <mxCell id="pUPX2TWsstye6qnm_-PR-107" style="edgeStyle=orthogonalEdgeStyle;rounded=0;orthogonalLoop=1;jettySize=auto;html=1;entryX=1;entryY=0.5;entryDx=0;entryDy=0;strokeColor=#E07A5F;fontColor=#393C56;fillColor=#F2CC8F;" edge="1" parent="1" source="pUPX2TWsstye6qnm_-PR-99" target="pUPX2TWsstye6qnm_-PR-106">
          <mxGeometry relative="1" as="geometry" />
        </mxCell>
        <mxCell id="pUPX2TWsstye6qnm_-PR-113" style="edgeStyle=orthogonalEdgeStyle;rounded=0;orthogonalLoop=1;jettySize=auto;html=1;entryX=0;entryY=0.75;entryDx=0;entryDy=0;strokeColor=#E07A5F;fontColor=#393C56;fillColor=#F2CC8F;" edge="1" parent="1" source="pUPX2TWsstye6qnm_-PR-99" target="pUPX2TWsstye6qnm_-PR-110">
          <mxGeometry relative="1" as="geometry">
            <Array as="points">
              <mxPoint x="390" y="1210" />
              <mxPoint x="400" y="1210" />
              <mxPoint x="400" y="1240" />
            </Array>
          </mxGeometry>
        </mxCell>
        <mxCell id="pUPX2TWsstye6qnm_-PR-114" style="edgeStyle=orthogonalEdgeStyle;rounded=0;orthogonalLoop=1;jettySize=auto;html=1;entryX=0;entryY=0.75;entryDx=0;entryDy=0;strokeColor=#E07A5F;fontColor=#393C56;fillColor=#F2CC8F;" edge="1" parent="1" target="pUPX2TWsstye6qnm_-PR-112">
          <mxGeometry relative="1" as="geometry">
            <mxPoint x="365" y="1192" as="sourcePoint" />
            <Array as="points">
              <mxPoint x="360" y="1192" />
              <mxPoint x="360" y="1193" />
              <mxPoint x="370" y="1193" />
              <mxPoint x="370" y="1300" />
            </Array>
          </mxGeometry>
        </mxCell>
        <mxCell id="pUPX2TWsstye6qnm_-PR-99" value="Edit Admin Form" style="rounded=0;whiteSpace=wrap;html=1;labelBackgroundColor=none;fillColor=#F2CC8F;strokeColor=#E07A5F;fontColor=#393C56;" vertex="1" parent="1">
          <mxGeometry x="290" y="1130" width="120" height="60" as="geometry" />
        </mxCell>
        <mxCell id="pUPX2TWsstye6qnm_-PR-104" style="edgeStyle=orthogonalEdgeStyle;rounded=0;orthogonalLoop=1;jettySize=auto;html=1;entryX=1;entryY=0.5;entryDx=0;entryDy=0;strokeColor=#E07A5F;fontColor=#393C56;fillColor=#F2CC8F;" edge="1" parent="1" source="pUPX2TWsstye6qnm_-PR-100" target="pUPX2TWsstye6qnm_-PR-103">
          <mxGeometry relative="1" as="geometry" />
        </mxCell>
        <mxCell id="pUPX2TWsstye6qnm_-PR-115" style="edgeStyle=orthogonalEdgeStyle;rounded=0;orthogonalLoop=1;jettySize=auto;html=1;entryX=0.5;entryY=0;entryDx=0;entryDy=0;strokeColor=#E07A5F;fontColor=#393C56;fillColor=#F2CC8F;" edge="1" parent="1" source="pUPX2TWsstye6qnm_-PR-100" target="pUPX2TWsstye6qnm_-PR-109">
          <mxGeometry relative="1" as="geometry" />
        </mxCell>
        <mxCell id="pUPX2TWsstye6qnm_-PR-116" style="edgeStyle=orthogonalEdgeStyle;rounded=0;orthogonalLoop=1;jettySize=auto;html=1;entryX=1;entryY=0.5;entryDx=0;entryDy=0;strokeColor=#E07A5F;fontColor=#393C56;fillColor=#F2CC8F;" edge="1" parent="1" source="pUPX2TWsstye6qnm_-PR-100" target="pUPX2TWsstye6qnm_-PR-111">
          <mxGeometry relative="1" as="geometry">
            <Array as="points">
              <mxPoint x="-50" y="1160" />
              <mxPoint x="-50" y="1280" />
            </Array>
          </mxGeometry>
        </mxCell>
        <mxCell id="pUPX2TWsstye6qnm_-PR-100" value="Edit Teacher Form" style="rounded=0;whiteSpace=wrap;html=1;labelBackgroundColor=none;fillColor=#F2CC8F;strokeColor=#E07A5F;fontColor=#393C56;" vertex="1" parent="1">
          <mxGeometry y="1130" width="120" height="60" as="geometry" />
        </mxCell>
        <mxCell id="pUPX2TWsstye6qnm_-PR-101" style="edgeStyle=orthogonalEdgeStyle;rounded=0;orthogonalLoop=1;jettySize=auto;html=1;entryX=0.596;entryY=-0.048;entryDx=0;entryDy=0;entryPerimeter=0;strokeColor=#E07A5F;fontColor=#393C56;fillColor=#F2CC8F;" edge="1" parent="1" source="pUPX2TWsstye6qnm_-PR-70" target="pUPX2TWsstye6qnm_-PR-99">
          <mxGeometry relative="1" as="geometry" />
        </mxCell>
        <mxCell id="pUPX2TWsstye6qnm_-PR-102" style="edgeStyle=orthogonalEdgeStyle;rounded=0;orthogonalLoop=1;jettySize=auto;html=1;entryX=0.54;entryY=0.019;entryDx=0;entryDy=0;entryPerimeter=0;strokeColor=#E07A5F;fontColor=#393C56;fillColor=#F2CC8F;" edge="1" parent="1" source="pUPX2TWsstye6qnm_-PR-67" target="pUPX2TWsstye6qnm_-PR-100">
          <mxGeometry relative="1" as="geometry" />
        </mxCell>
        <mxCell id="pUPX2TWsstye6qnm_-PR-105" style="edgeStyle=orthogonalEdgeStyle;rounded=0;orthogonalLoop=1;jettySize=auto;html=1;entryX=0;entryY=0.5;entryDx=0;entryDy=0;strokeColor=#E07A5F;fontColor=#393C56;fillColor=#F2CC8F;" edge="1" parent="1" source="pUPX2TWsstye6qnm_-PR-103" target="pUPX2TWsstye6qnm_-PR-100">
          <mxGeometry relative="1" as="geometry" />
        </mxCell>
        <mxCell id="pUPX2TWsstye6qnm_-PR-103" value="Reset Form" style="rounded=0;whiteSpace=wrap;html=1;labelBackgroundColor=none;fillColor=#e79004;strokeColor=#E07A5F;fontColor=#393C56;" vertex="1" parent="1">
          <mxGeometry x="-40" y="1210" width="60" height="40" as="geometry" />
        </mxCell>
        <mxCell id="pUPX2TWsstye6qnm_-PR-108" style="edgeStyle=orthogonalEdgeStyle;rounded=0;orthogonalLoop=1;jettySize=auto;html=1;entryX=0;entryY=0.5;entryDx=0;entryDy=0;strokeColor=#E07A5F;fontColor=#393C56;fillColor=#F2CC8F;exitX=0.18;exitY=-0.015;exitDx=0;exitDy=0;exitPerimeter=0;" edge="1" parent="1" source="pUPX2TWsstye6qnm_-PR-106" target="pUPX2TWsstye6qnm_-PR-99">
          <mxGeometry relative="1" as="geometry" />
        </mxCell>
        <mxCell id="pUPX2TWsstye6qnm_-PR-106" value="Reset Form" style="rounded=0;whiteSpace=wrap;html=1;labelBackgroundColor=none;fillColor=#e79004;strokeColor=#E07A5F;fontColor=#393C56;" vertex="1" parent="1">
          <mxGeometry x="260" y="1210" width="60" height="40" as="geometry" />
        </mxCell>
        <mxCell id="pUPX2TWsstye6qnm_-PR-118" style="edgeStyle=orthogonalEdgeStyle;rounded=0;orthogonalLoop=1;jettySize=auto;html=1;entryX=0;entryY=0.5;entryDx=0;entryDy=0;strokeColor=#E07A5F;fontColor=#393C56;fillColor=#F2CC8F;" edge="1" parent="1" source="pUPX2TWsstye6qnm_-PR-109" target="pUPX2TWsstye6qnm_-PR-60">
          <mxGeometry relative="1" as="geometry">
            <Array as="points">
              <mxPoint x="-150" y="1220" />
              <mxPoint x="-150" y="920" />
            </Array>
          </mxGeometry>
        </mxCell>
        <mxCell id="pUPX2TWsstye6qnm_-PR-109" value="Submit Changes" style="rounded=0;whiteSpace=wrap;html=1;labelBackgroundColor=none;fillColor=#e79004;strokeColor=#E07A5F;fontColor=#393C56;" vertex="1" parent="1">
          <mxGeometry x="-140" y="1200" width="60" height="40" as="geometry" />
        </mxCell>
        <mxCell id="pUPX2TWsstye6qnm_-PR-120" style="edgeStyle=orthogonalEdgeStyle;rounded=0;orthogonalLoop=1;jettySize=auto;html=1;entryX=1;entryY=0.25;entryDx=0;entryDy=0;strokeColor=#E07A5F;fontColor=#393C56;fillColor=#F2CC8F;" edge="1" parent="1" source="pUPX2TWsstye6qnm_-PR-110" target="pUPX2TWsstye6qnm_-PR-61">
          <mxGeometry relative="1" as="geometry">
            <Array as="points">
              <mxPoint x="490" y="1230" />
              <mxPoint x="490" y="905" />
            </Array>
          </mxGeometry>
        </mxCell>
        <mxCell id="pUPX2TWsstye6qnm_-PR-110" value="Submit Changes" style="rounded=0;whiteSpace=wrap;html=1;labelBackgroundColor=none;fillColor=#e79004;strokeColor=#E07A5F;fontColor=#393C56;" vertex="1" parent="1">
          <mxGeometry x="420" y="1210" width="60" height="40" as="geometry" />
        </mxCell>
        <mxCell id="pUPX2TWsstye6qnm_-PR-111" value="Go Back" style="rounded=0;whiteSpace=wrap;html=1;labelBackgroundColor=none;fillColor=#e79004;strokeColor=#E07A5F;fontColor=#393C56;" vertex="1" parent="1">
          <mxGeometry x="-140" y="1260" width="60" height="40" as="geometry" />
        </mxCell>
        <mxCell id="pUPX2TWsstye6qnm_-PR-112" value="Go Back" style="rounded=0;whiteSpace=wrap;html=1;labelBackgroundColor=none;fillColor=#e79004;strokeColor=#E07A5F;fontColor=#393C56;" vertex="1" parent="1">
          <mxGeometry x="420" y="1270" width="60" height="40" as="geometry" />
        </mxCell>
        <mxCell id="pUPX2TWsstye6qnm_-PR-119" style="edgeStyle=orthogonalEdgeStyle;rounded=0;orthogonalLoop=1;jettySize=auto;html=1;entryX=-0.007;entryY=0.173;entryDx=0;entryDy=0;entryPerimeter=0;strokeColor=#E07A5F;fontColor=#393C56;fillColor=#F2CC8F;" edge="1" parent="1" source="pUPX2TWsstye6qnm_-PR-111" target="pUPX2TWsstye6qnm_-PR-60">
          <mxGeometry relative="1" as="geometry">
            <Array as="points">
              <mxPoint x="-160" y="1280" />
              <mxPoint x="-160" y="900" />
            </Array>
          </mxGeometry>
        </mxCell>
        <mxCell id="pUPX2TWsstye6qnm_-PR-121" style="edgeStyle=orthogonalEdgeStyle;rounded=0;orthogonalLoop=1;jettySize=auto;html=1;strokeColor=#E07A5F;fontColor=#393C56;fillColor=#F2CC8F;" edge="1" parent="1" source="pUPX2TWsstye6qnm_-PR-112">
          <mxGeometry relative="1" as="geometry">
            <mxPoint x="299" y="925" as="targetPoint" />
            <Array as="points">
              <mxPoint x="500" y="1290" />
              <mxPoint x="500" y="925" />
            </Array>
          </mxGeometry>
        </mxCell>
      </root>
    </mxGraphModel>
  </diagram>
</mxfile>
